# xmcd CD database file
#
# Track frame offsets:
#	150
#	23565
#	42497
#	62762
#	84720
#	105030
#	125545
#	147307
#	165075
#	186120
#	208770
#
# Disc length: 3065 seconds
#
# Revision: 1
# Processed by: cddbd v1.5.1PL2 Copyright (c) Steve Scherf et al.
# Submitted via: CDex 1.70beta2
#
DISCID=8b0bf70b
DTITLE=Smooth Jazz Collection - dinner for two
DYEAR=1900
DGENRE=Jazz
TTITLE0=Invitation
TTITLE1=Beaujolais Nouveau
TTITLE2=Blush
TTITLE3=Pick You Up At Seven
TTITLE4=Perfect
TTITLE5=Laughter At Eight
TTITLE6=Making Memories
TTITLE7=Dance Before Dessert
TTITLE8=Reflection In Your Eyes
TTITLE9=In the Arms Of Forever
TTITLE10=Good Night Kiss
EXTD=
EXTT0=
EXTT1=
EXTT2=
EXTT3=
EXTT4=
EXTT5=
EXTT6=
EXTT7=
EXTT8=
EXTT9=
EXTT10=
PLAYORDER=
